<svg xmlns="http://www.w3.org/2000/svg" width="18" height="18" viewBox="0 0 20 20" fill="none"><path d="M9.99982 0C4.48655 0 0 4.48568 0 9.99965C0 15.5136 4.48626 20 9.99982 20C15.5143 20 19.9997 15.5139 19.9997 9.99965C19.9997 4.48568 15.5146 0 9.99982 0ZM14.3277 7.95082L9.09047 13.1881C8.93322 13.3451 8.72599 13.4244 8.52068 13.4244C8.31379 13.4244 8.10848 13.3452 7.9507 13.1881L5.67298 10.9103C5.35806 10.5951 5.35806 10.0853 5.67298 9.77046C5.98783 9.4556 6.49766 9.4556 6.81257 9.77046L8.52068 11.4791L13.1888 6.81076C13.503 6.49626 14.0128 6.49626 14.3277 6.81076C14.6426 7.12614 14.6426 7.63597 14.3277 7.95082Z" fill="#39C69B"></path></svg>